G04 start of page 2 for group 9 layer_idx 6 *
G04 Title: (unknown), global_outline *
G04 Creator: pcb-rnd 2.2.1 *
G04 CreationDate: 2020-06-04 21:46:31 UTC *
G04 For:  *
G04 Format: Gerber/RS-274X *
G04 PCB-Dimensions: 500000 500000 *
G04 PCB-Coordinate-Origin: lower left *
%MOIN*%
%FSLAX25Y25*%
%LNGLOBAL_BOUNDARY_UROUTE_9*%
%ADD66C,0.0200*%
G54D66*X219094Y244173D02*X181299D01*
X260827D02*X223031D01*
X181299D02*Y207283D01*
X223031Y244173D02*Y207283D01*
X260827Y244173D02*Y207283D01*
X219094Y183661D02*Y167795D01*
X302559Y244173D02*X264764D01*
X264803Y183661D02*Y167795D01*
X219094Y244173D02*Y207283D01*
X264803Y244173D02*Y207283D01*
X302598Y244173D02*Y207283D01*
X223031Y183661D02*Y167795D01*
X260827Y183661D02*Y167795D01*
X181299Y183661D02*Y138976D01*
X302598Y183661D02*Y90000D01*
X297047Y84449D02*X166535D01*
X302598Y90000D02*X302559Y89961D01*
X171850Y129760D02*X166571D01*
X181299Y207283D02*G75*G02X193110Y195472I0J-11811D01*G01*
G75*G02X181299Y183661I-11811J0D01*G01*
X223031Y207283D02*G75*G02X234843Y195472I0J-11811D01*G01*
X219094Y207283D02*G75*G03X207283Y195472I0J-11811D01*G01*
G75*G03X219094Y183661I11811J0D01*G01*
Y167795D02*G75*G03X223031Y167795I1969J0D01*G01*
X234843Y195472D02*G75*G02X223031Y183661I-11811J0D01*G01*
X260827Y207283D02*G75*G03X249016Y195472I0J-11811D01*G01*
G75*G03X260827Y183661I11811J0D01*G01*
Y167795D02*G75*G03X264764Y167795I1969J0D01*G01*
X264803Y207283D02*G75*G02X276614Y195472I0J-11811D01*G01*
G75*G02X264803Y183661I-11811J0D01*G01*
X302598Y207283D02*G75*G03X290787Y195472I0J-11811D01*G01*
G75*G03X302598Y183661I11811J0D01*G01*
X302559Y89961D02*G75*G02X297047Y84449I-5512J0D01*G01*
X171850Y129760D02*G75*G03X181299Y139209I0J9449D01*G01*
X166732Y84449D02*G75*G02X166454Y129723I0J22638D01*G01*
M02*
