G04 start of page 2 for group 3 layer_idx 0 *
G04 Title: (unknown), top_copper *
G04 Creator: pcb-rnd 2.2.0 *
G04 CreationDate: 2020-03-19 21:02:38 UTC *
G04 For:  *
G04 Format: Gerber/RS-274X *
G04 PCB-Dimensions: 500000 500000 *
G04 PCB-Coordinate-Origin: lower left *
%MOIN*%
%FSLAX25Y25*%
%LNTOP_COPPER_NONE_3*%
%ADD20C,0.0394*%
%ADD19C,0.0591*%
%ADD18C,0.1969*%
%ADD17C,0.1285*%
%ADD16C,0.0866*%
%ADD15C,0.0984*%
%ADD14C,0.0001*%
%ADD13C,0.2165*%
%ADD12C,0.2700*%
%ADD11C,0.0200*%
G54D11*X192913Y172480D02*Y172638D01*
X200591Y180315D01*
X210827D01*
X206693Y151969D02*X207677Y150984D01*
X192913Y151969D02*X191929Y150984D01*
X206693Y172480D02*Y165748D01*
X193012Y152067D01*
X210827Y180315D02*X214173Y176969D01*
Y157480D01*
X207677Y150984D01*
X191929D02*Y144094D01*
X196850Y139173D01*
X203150D01*
X207677Y150984D02*Y140551D01*
X276417Y151811D02*X275591Y150984D01*
X268701Y157874D02*X275591Y150984D01*
X258071Y159449D02*Y128346D01*
X275591Y150984D02*X274016D01*
X262795Y139764D01*
X267126Y131693D02*X272638Y137205D01*
X285236D01*
X291339Y143307D01*
Y150394D01*
X291634Y150689D01*
X232874Y121260D02*X234055Y120079D01*
X258071Y128346D02*X249803Y120079D01*
X234055D02*Y93504D01*
X235433Y92126D01*
X249803Y120079D02*Y103346D01*
X248228Y101772D01*
Y92126D01*
X248228Y92126D01*
X275984Y92126D02*X275984Y92126D01*
X262795Y105315D02*X275984Y92126D01*
X271850Y102165D02*X267126Y106890D01*
X288780Y92126D02*Y99409D01*
X286024Y102165D01*
X271850D01*
X267126Y106890D02*Y131693D01*
X262795Y139764D02*Y105315D01*
X248425Y170669D02*Y177362D01*
X271654Y180906D02*X268701Y177953D01*
Y157874D01*
X245276Y166142D02*X251378D01*
X258071Y159449D01*
X290197Y172480D02*X290118D01*
X281693Y180906D01*
X271654D01*
X276417Y172480D02*X277520D01*
X291339Y158661D01*
Y150984D01*
X290197Y152126D02*X291535Y150787D01*
X248425Y177362D02*X244882Y180906D01*
X230118D01*
X234488Y172480D02*X238937D01*
X245276Y166142D01*
X230118Y180906D02*X227165Y177953D01*
Y162402D01*
X224803Y160039D01*
Y129331D01*
X234055Y120079D01*
X217913Y124409D02*Y108268D01*
X211417Y101772D01*
X221850Y126378D02*Y105512D01*
X211417Y101772D02*X205315D01*
X221850Y105512D02*X208465Y92126D01*
X205315Y101772D02*X195669Y92126D01*
X203150Y139173D02*X217913Y124409D01*
X207677Y140551D02*X221850Y126378D01*
G54D12*X241929Y229528D03*
X200197D03*
X283661Y229488D03*
G54D13*X172244Y100984D03*
G54D12*X200197Y119094D03*
G54D14*G36*
X190748Y97047D02*X200591D01*
Y87205D01*
X190748D01*
Y97047D01*
G37*
G54D15*X208465Y92126D03*
G54D14*G36*
X230512Y97047D02*X240354D01*
Y87205D01*
X230512D01*
Y97047D01*
G37*
G36*
X229134Y123425D02*X238976D01*
Y116732D01*
X229134D01*
Y123425D01*
G37*
G54D12*X241929Y150787D03*
X283661Y119055D03*
G54D14*G36*
X270669Y154331D02*X280512D01*
Y147638D01*
X270669D01*
Y154331D01*
G37*
G36*
X286417D02*X296260D01*
Y147638D01*
X286417D01*
Y154331D01*
G37*
G36*
X244882Y123425D02*X254724D01*
Y116732D01*
X244882D01*
Y123425D01*
G37*
G54D15*X248228Y92126D03*
G54D14*G36*
X271063Y97047D02*X280905D01*
Y87205D01*
X271063D01*
Y97047D01*
G37*
G54D15*X288780Y92126D03*
G54D14*G36*
X187008Y154331D02*X196850D01*
Y147638D01*
X187008D01*
Y154331D01*
G37*
G36*
X202756D02*X212598D01*
Y147638D01*
X202756D01*
Y154331D01*
G37*
G36*
X280748Y176024D02*X280688Y176325D01*
X280517Y176580D01*
X280262Y176751D01*
X279961Y176811D01*
X272874D01*
X272573Y176751D01*
X272317Y176580D01*
X272147Y176325D01*
X272087Y176024D01*
Y168937D01*
X272147Y168636D01*
X272317Y168380D01*
X272573Y168210D01*
X272874Y168150D01*
X279961D01*
X280262Y168210D01*
X280517Y168380D01*
X280688Y168636D01*
X280748Y168937D01*
Y176024D01*
G37*
G54D16*X290197Y172480D03*
G54D14*G36*
X238976Y176024D02*X238916Y176325D01*
X238746Y176580D01*
X238490Y176751D01*
X238189Y176811D01*
X231102D01*
X230801Y176751D01*
X230546Y176580D01*
X230375Y176325D01*
X230315Y176024D01*
Y168937D01*
X230375Y168636D01*
X230546Y168380D01*
X230801Y168210D01*
X231102Y168150D01*
X238189D01*
X238490Y168210D01*
X238746Y168380D01*
X238916Y168636D01*
X238976Y168937D01*
Y176024D01*
G37*
G36*
X197244D02*X197184Y176325D01*
X197013Y176580D01*
X196758Y176751D01*
X196457Y176811D01*
X189370D01*
X189069Y176751D01*
X188813Y176580D01*
X188643Y176325D01*
X188583Y176024D01*
Y168937D01*
X188643Y168636D01*
X188813Y168380D01*
X189069Y168210D01*
X189370Y168150D01*
X196457D01*
X196758Y168210D01*
X197013Y168380D01*
X197184Y168636D01*
X197244Y168937D01*
Y176024D01*
G37*
G54D16*X206693Y172480D03*
X248425D03*
G54D17*G54D18*G54D17*G54D19*G54D17*G54D19*G54D20*M02*
