G04 start of page 2 for group 12 layer_idx 7 *
G04 Title: (unknown), bottom_silk *
G04 Creator: pcb-rnd 2.2.1 *
G04 CreationDate: 2020-06-04 21:46:31 UTC *
G04 For:  *
G04 Format: Gerber/RS-274X *
G04 PCB-Dimensions: 500000 500000 *
G04 PCB-Coordinate-Origin: lower left *
%MOIN*%
%FSLAX25Y25*%
%LNBOTTOM_SILK_NONE_12*%
%ADD54C,0.0070*%
%ADD53C,0.0200*%
G54D53*X217126Y242008D02*Y217008D01*
X183268Y242008D02*X217126D01*
X183268Y217008D02*Y242008D01*
Y217008D02*X217126D01*
X266732D02*Y242008D01*
X258858D02*Y217008D01*
X225000Y242008D02*X258858D01*
X225000Y217008D02*Y242008D01*
Y217008D02*X258858D01*
X186811Y106693D02*Y163189D01*
X297835D01*
Y106693D01*
X186811D02*X297835D01*
X300591Y242008D02*Y217008D01*
X266732Y242008D02*X300591D01*
X266732Y217008D02*X300591D01*
G54D54*X227756Y212052D02*X229256D01*
X227756Y214252D02*X229756D01*
X227756Y210252D02*Y214252D01*
Y210252D02*X229756D01*
X230956Y212252D02*X231956Y214252D01*
X232956Y212252D02*X231956Y214252D01*
X235656Y212252D02*X236156Y212752D01*
X234656Y212252D02*X235656D01*
X234156Y212752D02*X234656Y212252D01*
X234156Y212752D02*Y213752D01*
X234656Y214252D01*
X236156Y212252D02*Y213752D01*
X236656Y214252D01*
X234656D02*X235656D01*
X236156Y213752D01*
X238356Y212752D02*Y214252D01*
Y212752D02*X238856Y212252D01*
X239356D01*
X239856Y212752D01*
Y214252D01*
X237856Y212252D02*X238356Y212752D01*
X242856Y210252D02*Y214252D01*
Y210252D02*X244856D01*
X242856Y212052D02*X244356D01*
X246056Y212752D02*Y213752D01*
Y212752D02*X246556Y212252D01*
X247556D01*
X248056Y212752D01*
Y213752D01*
X247556Y214252D02*X248056Y213752D01*
X246556Y214252D02*X247556D01*
X246056Y213752D02*X246556Y214252D01*
X249756D02*X251256D01*
X251756Y213752D01*
X251256Y213252D02*X251756Y213752D01*
X249756Y213252D02*X251256D01*
X249256Y212752D02*X249756Y213252D01*
X249256Y212752D02*X249756Y212252D01*
X251256D01*
X251756Y212752D01*
X249256Y213752D02*X249756Y214252D01*
X253456D02*X254956D01*
X255456Y213752D01*
X254956Y213252D02*X255456Y213752D01*
X253456Y213252D02*X254956D01*
X252956Y212752D02*X253456Y213252D01*
X252956Y212752D02*X253456Y212252D01*
X254956D01*
X255456Y212752D01*
X252956Y213752D02*X253456Y214252D01*
X184055Y210055D02*Y214055D01*
X186055D01*
X187255Y211055D02*Y211155D01*
Y212555D02*Y214055D01*
X188755Y212055D02*X190255D01*
X188255Y212555D02*X188755Y212055D01*
X188255Y212555D02*Y213555D01*
X188755Y214055D01*
X190255D01*
X191455Y210055D02*Y214055D01*
Y212555D02*X192955Y214055D01*
X191455Y212555D02*X192455Y211555D01*
X194155Y210555D02*Y213555D01*
Y210555D02*X194655Y210055D01*
X195655D01*
X196155Y210555D01*
Y213555D01*
X195655Y214055D02*X196155Y213555D01*
X194655Y214055D02*X195655D01*
X194155Y213555D02*X194655Y214055D01*
X197855Y212555D02*Y214055D01*
Y212555D02*X198355Y212055D01*
X198855D01*
X199355Y212555D01*
Y214055D01*
Y212555D02*X199855Y212055D01*
X200355D01*
X200855Y212555D01*
Y214055D01*
X197355Y212055D02*X197855Y212555D01*
X202555Y214055D02*X204055D01*
X202055Y213555D02*X202555Y214055D01*
X202055Y212555D02*Y213555D01*
Y212555D02*X202555Y212055D01*
X203555D01*
X204055Y212555D01*
X202055Y213055D02*X204055D01*
Y212555D01*
X205755Y210055D02*Y213555D01*
X206255Y214055D01*
X205255Y211555D02*X206255D01*
X207755Y214055D02*X209255D01*
X207255Y213555D02*X207755Y214055D01*
X207255Y212555D02*Y213555D01*
Y212555D02*X207755Y212055D01*
X208755D01*
X209255Y212555D01*
X207255Y213055D02*X209255D01*
Y212555D01*
X210955D02*Y214055D01*
Y212555D02*X211455Y212055D01*
X212455D01*
X210455D02*X210955Y212555D01*
X213655Y210555D02*X214155Y210055D01*
X215155D01*
X215655Y210555D01*
X215155Y214055D02*X215655Y213555D01*
X214155Y214055D02*X215155D01*
X213655Y213555D02*X214155Y214055D01*
Y211855D02*X215155D01*
X215655Y210555D02*Y211355D01*
Y212355D02*Y213555D01*
Y212355D02*X215155Y211855D01*
X215655Y211355D02*X215155Y211855D01*
X270276Y210752D02*X270776Y210252D01*
X272276D01*
X272776Y210752D01*
Y211752D01*
X270276Y214252D02*X272776Y211752D01*
X270276Y214252D02*X272776D01*
X273976Y213752D02*X274476Y214252D01*
X273976Y210752D02*Y213752D01*
Y210752D02*X274476Y210252D01*
X275476D01*
X275976Y210752D01*
Y213752D01*
X275476Y214252D02*X275976Y213752D01*
X274476Y214252D02*X275476D01*
X273976Y213252D02*X275976Y211252D01*
X277176Y210752D02*X277676Y210252D01*
X279176D01*
X279676Y210752D01*
Y211752D01*
X277176Y214252D02*X279676Y211752D01*
X277176Y214252D02*X279676D01*
X280876Y213752D02*X281376Y214252D01*
X280876Y210752D02*Y213752D01*
Y210752D02*X281376Y210252D01*
X282376D01*
X282876Y210752D01*
Y213752D01*
X282376Y214252D02*X282876Y213752D01*
X281376Y214252D02*X282376D01*
X280876Y213252D02*X282876Y211252D01*
X284076Y213752D02*X284576Y214252D01*
X284076Y210752D02*Y213752D01*
Y210752D02*X284576Y210252D01*
X285576D01*
X286076Y210752D01*
Y213752D01*
X285576Y214252D02*X286076Y213752D01*
X284576Y214252D02*X285576D01*
X284076Y213252D02*X286076Y211252D01*
X288776Y210252D02*X289276Y210752D01*
X287776Y210252D02*X288776D01*
X287276Y210752D02*X287776Y210252D01*
X287276Y210752D02*Y213752D01*
X287776Y214252D01*
X288776Y212052D02*X289276Y212552D01*
X287276Y212052D02*X288776D01*
X287776Y214252D02*X288776D01*
X289276Y213752D01*
Y212552D02*Y213752D01*
X290476D02*X290976Y214252D01*
X290476Y210752D02*Y213752D01*
Y210752D02*X290976Y210252D01*
X291976D01*
X292476Y210752D01*
Y213752D01*
X291976Y214252D02*X292476Y213752D01*
X290976Y214252D02*X291976D01*
X290476Y213252D02*X292476Y211252D01*
X293676Y212752D02*X295676Y210252D01*
X293676Y212752D02*X296176D01*
X295676Y210252D02*Y214252D01*
X196063Y181934D02*X197563D01*
X196063Y184134D02*X198063D01*
X196063Y180134D02*Y184134D01*
Y180134D02*X198063D01*
X199763D02*Y184134D01*
X199263Y180134D02*X201263D01*
X201763Y180634D01*
Y181634D01*
X201263Y182134D02*X201763Y181634D01*
X199763Y182134D02*X201263D01*
X202963Y180134D02*Y184134D01*
X204963D01*
X233965Y180134D02*Y184134D01*
X235265Y180134D02*X235965Y180834D01*
Y183434D01*
X235265Y184134D02*X235965Y183434D01*
X233465Y184134D02*X235265D01*
X233465Y180134D02*X235265D01*
X237665Y184134D02*X239165D01*
X237165Y183634D02*X237665Y184134D01*
X237165Y182634D02*Y183634D01*
Y182634D02*X237665Y182134D01*
X238665D01*
X239165Y182634D01*
X237165Y183134D02*X239165D01*
Y182634D01*
X240865Y184134D02*X242365D01*
X242865Y183634D01*
X242365Y183134D02*X242865Y183634D01*
X240865Y183134D02*X242365D01*
X240365Y182634D02*X240865Y183134D01*
X240365Y182634D02*X240865Y182134D01*
X242365D01*
X242865Y182634D01*
X240365Y183634D02*X240865Y184134D01*
X244065Y181134D02*Y181234D01*
Y182634D02*Y184134D01*
X246565Y182134D02*X247065Y182634D01*
X245565Y182134D02*X246565D01*
X245065Y182634D02*X245565Y182134D01*
X245065Y182634D02*Y183634D01*
X245565Y184134D01*
X246565D01*
X247065Y183634D01*
X245065Y185134D02*X245565Y185634D01*
X246565D01*
X247065Y185134D01*
Y182134D02*Y185134D01*
X248765Y182634D02*Y184134D01*
Y182634D02*X249265Y182134D01*
X249765D01*
X250265Y182634D01*
Y184134D01*
X248265Y182134D02*X248765Y182634D01*
X251465Y181634D02*X251965D01*
X251465Y182634D02*X251965D01*
M02*
