G04 start of page 2 for group 11 layer_idx 11 *
G04 Title: (unknown), bottom_mask *
G04 Creator: pcb-rnd 2.2.0 *
G04 CreationDate: 2020-03-19 21:02:38 UTC *
G04 For:  *
G04 Format: Gerber/RS-274X *
G04 PCB-Dimensions: 500000 500000 *
G04 PCB-Coordinate-Origin: lower left *
%MOIN*%
%FSLAX25Y25*%
%LNBOTTOM_MASK_NONE_11*%
%ADD63C,0.0965*%
%ADD62C,0.1181*%
%ADD61C,0.0001*%
%ADD60C,0.3346*%
%ADD59C,0.2760*%
G54D59*X241929Y229528D03*
X200197D03*
X283661Y229488D03*
G54D60*X172244Y100984D03*
G54D59*X200197Y119094D03*
G54D61*G36*
X189764Y98031D02*X201575D01*
Y86220D01*
X189764D01*
Y98031D01*
G37*
G54D62*X208465Y92126D03*
G54D61*G36*
X229528Y98031D02*X241339D01*
Y86220D01*
X229528D01*
Y98031D01*
G37*
G54D59*X241929Y150787D03*
X283661Y119055D03*
G54D62*X248228Y92126D03*
G54D61*G36*
X270079Y98031D02*X281890D01*
Y86220D01*
X270079D01*
Y98031D01*
G37*
G54D62*X288780Y92126D03*
G54D61*G36*
X281240Y176072D02*X281152Y176517D01*
X280872Y176935D01*
X280454Y177215D01*
X280009Y177303D01*
X272826D01*
X272381Y177215D01*
X271962Y176935D01*
X271683Y176517D01*
X271594Y176072D01*
Y168889D01*
X271683Y168444D01*
X271962Y168025D01*
X272381Y167746D01*
X272826Y167657D01*
X280009D01*
X280454Y167746D01*
X280872Y168025D01*
X281152Y168444D01*
X281240Y168889D01*
Y176072D01*
G37*
G54D63*X290197Y172480D03*
G54D61*G36*
X239469Y176072D02*X239380Y176517D01*
X239101Y176935D01*
X238682Y177215D01*
X238237Y177303D01*
X231054D01*
X230609Y177215D01*
X230191Y176935D01*
X229911Y176517D01*
X229823Y176072D01*
Y168889D01*
X229911Y168444D01*
X230191Y168025D01*
X230609Y167746D01*
X231054Y167657D01*
X238237D01*
X238682Y167746D01*
X239101Y168025D01*
X239380Y168444D01*
X239469Y168889D01*
Y176072D01*
G37*
G36*
X197736D02*X197648Y176517D01*
X197368Y176935D01*
X196950Y177215D01*
X196505Y177303D01*
X189322D01*
X188877Y177215D01*
X188458Y176935D01*
X188179Y176517D01*
X188091Y176072D01*
Y168889D01*
X188179Y168444D01*
X188458Y168025D01*
X188877Y167746D01*
X189322Y167657D01*
X196505D01*
X196950Y167746D01*
X197368Y168025D01*
X197648Y168444D01*
X197736Y168889D01*
Y176072D01*
G37*
G54D63*X206693Y172480D03*
X248425D03*
M02*
