G04 start of page 2 for group 10 layer_idx 1 *
G04 Title: (unknown), bottom_copper *
G04 Creator: pcb-rnd 2.2.0 *
G04 CreationDate: 2020-03-19 21:02:38 UTC *
G04 For:  *
G04 Format: Gerber/RS-274X *
G04 PCB-Dimensions: 500000 500000 *
G04 PCB-Coordinate-Origin: lower left *
%MOIN*%
%FSLAX25Y25*%
%LNBOTTOM_COPPER_NONE_10*%
%ADD30C,0.0394*%
%ADD29C,0.0591*%
%ADD28C,0.1969*%
%ADD27C,0.1285*%
%ADD26C,0.0866*%
%ADD25C,0.0984*%
%ADD24C,0.0001*%
%ADD23C,0.2165*%
%ADD22C,0.2700*%
%ADD21C,0.0200*%
G54D21*X248425Y172480D02*Y172441D01*
X208465Y92126D02*X208465Y92126D01*
X234646Y172480D02*X234488D01*
X248228Y92126D02*X248228Y92126D01*
G54D22*X241929Y229528D03*
X200197D03*
X283661Y229488D03*
G54D23*X172244Y100984D03*
G54D22*X200197Y119094D03*
G54D24*G36*
X190748Y97047D02*X200591D01*
Y87205D01*
X190748D01*
Y97047D01*
G37*
G54D25*X208465Y92126D03*
G54D24*G36*
X230512Y97047D02*X240354D01*
Y87205D01*
X230512D01*
Y97047D01*
G37*
G54D22*X241929Y150787D03*
X283661Y119055D03*
G54D25*X248228Y92126D03*
G54D24*G36*
X271063Y97047D02*X280905D01*
Y87205D01*
X271063D01*
Y97047D01*
G37*
G54D25*X288780Y92126D03*
G54D24*G36*
X280748Y176024D02*X280688Y176325D01*
X280517Y176580D01*
X280262Y176751D01*
X279961Y176811D01*
X272874D01*
X272573Y176751D01*
X272317Y176580D01*
X272147Y176325D01*
X272087Y176024D01*
Y168937D01*
X272147Y168636D01*
X272317Y168380D01*
X272573Y168210D01*
X272874Y168150D01*
X279961D01*
X280262Y168210D01*
X280517Y168380D01*
X280688Y168636D01*
X280748Y168937D01*
Y176024D01*
G37*
G54D26*X290197Y172480D03*
G54D24*G36*
X238976Y176024D02*X238916Y176325D01*
X238746Y176580D01*
X238490Y176751D01*
X238189Y176811D01*
X231102D01*
X230801Y176751D01*
X230546Y176580D01*
X230375Y176325D01*
X230315Y176024D01*
Y168937D01*
X230375Y168636D01*
X230546Y168380D01*
X230801Y168210D01*
X231102Y168150D01*
X238189D01*
X238490Y168210D01*
X238746Y168380D01*
X238916Y168636D01*
X238976Y168937D01*
Y176024D01*
G37*
G36*
X197244D02*X197184Y176325D01*
X197013Y176580D01*
X196758Y176751D01*
X196457Y176811D01*
X189370D01*
X189069Y176751D01*
X188813Y176580D01*
X188643Y176325D01*
X188583Y176024D01*
Y168937D01*
X188643Y168636D01*
X188813Y168380D01*
X189069Y168210D01*
X189370Y168150D01*
X196457D01*
X196758Y168210D01*
X197013Y168380D01*
X197184Y168636D01*
X197244Y168937D01*
Y176024D01*
G37*
G54D26*X206693Y172480D03*
X248425D03*
G54D27*G54D28*G54D27*G54D29*G54D27*G54D29*G54D30*M02*
