G04 start of page 2 for group 2 layer_idx 10 *
G04 Title: (unknown), top_mask *
G04 Creator: pcb-rnd 2.2.1 *
G04 CreationDate: 2020-06-04 21:46:31 UTC *
G04 For:  *
G04 Format: Gerber/RS-274X *
G04 PCB-Dimensions: 500000 500000 *
G04 PCB-Coordinate-Origin: lower left *
%MOIN*%
%FSLAX25Y25*%
%LNTOP_MASK_NONE_2*%
%ADD59C,0.0965*%
%ADD58C,0.1181*%
%ADD57C,0.0001*%
%ADD56C,0.3839*%
%ADD55C,0.2760*%
G54D55*X241929Y229528D03*
X200197D03*
X283661Y229488D03*
G54D56*X166929Y107087D03*
G54D55*X241929Y150787D03*
X200197Y119094D03*
G54D57*G36*
X186417Y154921D02*X197441D01*
Y147047D01*
X186417D01*
Y154921D01*
G37*
G36*
X202165D02*X213189D01*
Y147047D01*
X202165D01*
Y154921D01*
G37*
G36*
X228543Y124016D02*X239567D01*
Y116142D01*
X228543D01*
Y124016D01*
G37*
G54D55*X283661Y119055D03*
G54D57*G36*
X270079Y98031D02*X281890D01*
Y86220D01*
X270079D01*
Y98031D01*
G37*
G54D58*X288780Y92126D03*
G54D57*G36*
X270079Y154921D02*X281102D01*
Y147047D01*
X270079D01*
Y154921D01*
G37*
G36*
X285827D02*X296850D01*
Y147047D01*
X285827D01*
Y154921D01*
G37*
G36*
X244291Y124016D02*X255315D01*
Y116142D01*
X244291D01*
Y124016D01*
G37*
G36*
X281230Y176077D02*X281142Y176522D01*
X280862Y176940D01*
X280444Y177220D01*
X279999Y177308D01*
X272815D01*
X272371Y177220D01*
X271952Y176940D01*
X271673Y176522D01*
X271584Y176077D01*
Y168894D01*
X271673Y168449D01*
X271952Y168030D01*
X272371Y167751D01*
X272815Y167662D01*
X279999D01*
X280444Y167751D01*
X280862Y168030D01*
X281142Y168449D01*
X281230Y168894D01*
Y176077D01*
G37*
G54D59*X290187Y172485D03*
G54D57*G36*
X189764Y98031D02*X201575D01*
Y86220D01*
X189764D01*
Y98031D01*
G37*
G36*
X197736Y176072D02*X197648Y176517D01*
X197368Y176935D01*
X196950Y177215D01*
X196505Y177303D01*
X189322D01*
X188877Y177215D01*
X188459Y176935D01*
X188179Y176517D01*
X188091Y176072D01*
Y168889D01*
X188179Y168444D01*
X188459Y168025D01*
X188877Y167746D01*
X189322Y167657D01*
X196505D01*
X196950Y167746D01*
X197368Y168025D01*
X197648Y168444D01*
X197736Y168889D01*
Y176072D01*
G37*
G54D59*X206693Y172480D03*
G54D58*X208465Y92126D03*
G54D57*G36*
X229528Y98031D02*X241339D01*
Y86220D01*
X229528D01*
Y98031D01*
G37*
G36*
X239469Y176072D02*X239380Y176517D01*
X239101Y176935D01*
X238682Y177215D01*
X238237Y177303D01*
X231054D01*
X230609Y177215D01*
X230191Y176935D01*
X229911Y176517D01*
X229823Y176072D01*
Y168889D01*
X229911Y168444D01*
X230191Y168025D01*
X230609Y167746D01*
X231054Y167657D01*
X238237D01*
X238682Y167746D01*
X239101Y168025D01*
X239380Y168444D01*
X239469Y168889D01*
Y176072D01*
G37*
G54D59*X248425Y172480D03*
G54D58*X248228Y92126D03*
M02*
